<?xml version="1.0" encoding="UTF-8" standalone="no"?>
<svg
   aria-hidden="true"
   focusable="false"
   data-prefix="far"
   data-icon="images"
   class="svg-inline--fa fa-images fa-w-18"
   role="img"
   viewBox="0 0 576 512"
   version="1.1"
   id="svg19"
   sodipodi:docname="token-images.svg"
   inkscape:version="1.1 (c68e22c387, 2021-05-23)"
   xmlns:inkscape="http://www.inkscape.org/namespaces/inkscape"
   xmlns:sodipodi="http://sodipodi.sourceforge.net/DTD/sodipodi-0.dtd"
   xmlns="http://www.w3.org/2000/svg"
   xmlns:svg="http://www.w3.org/2000/svg">
  <defs
     id="defs23" />
  <sodipodi:namedview
     id="namedview21"
     pagecolor="#ffffff"
     bordercolor="#666666"
     borderopacity="1.0"
     inkscape:pageshadow="2"
     inkscape:pageopacity="0.0"
     inkscape:pagecheckerboard="0"
     showgrid="false"
     inkscape:zoom="0.83485557"
     inkscape:cx="515.65806"
     inkscape:cy="-97.621677"
     inkscape:window-width="2498"
     inkscape:window-height="1417"
     inkscape:window-x="1134"
     inkscape:window-y="266"
     inkscape:window-maximized="1"
     inkscape:current-layer="svg19" />
  <path
     fill="currentColor"
     d="m 480,416 v 16 c 0,26.51 -21.49,48 -48,48 H 48 C 21.49,480 0,458.51 0,432 V 176 c 0,-26.51 21.49,-48 48,-48 h 16 v 48 H 54 c -3.313708,0 -6,2.68629 -6,6 v 244 c 0,3.31371 2.686292,6 6,6 h 372 c 3.31371,0 6,-2.68629 6,-6 V 416 Z M 522,80 H 150 c -3.31371,0 -6,2.686292 -6,6 v 244 c 0,3.31371 2.68629,6 6,6 h 372 c 3.31371,0 6,-2.68629 6,-6 V 86 c 0,-3.313708 -2.68629,-6 -6,-6 z m 6,-48 c 26.51,0 48,21.49 48,48 v 256 c 0,26.51 -21.49,48 -48,48 H 144 C 117.49,384 96,362.51 96,336 V 80 c 0,-26.51 21.49,-48 48,-48 z"
     id="path17"
     sodipodi:nodetypes="cssssssccssssssccssssssssssssssssss"
     style="fill:#ffffff" />
  <ellipse
     style="fill:#ffffff;stroke-width:0.980196"
     id="path2404"
     cx="339.00412"
     cy="161.56165"
     rx="53.571548"
     ry="51.877586" />
  <g
     id="g3974"
     transform="matrix(1.0695605,0,0,1.1754194,-28.198969,-43.319962)"
     style="fill:#ffffff">
    <path
       style="fill:#ffffff;stroke:#ffffff;stroke-width:1px;stroke-linecap:butt;stroke-linejoin:miter;stroke-opacity:1"
       d="m 247.31844,301.10174 c 1.34075,-11.36414 5.20924,-21.29324 10.97403,-29.79329 18.10955,-26.7021 54.93264,-39.30172 90.89434,-37.98476 44.69676,1.63684 88.06284,24.77199 92.51377,69.04852"
       id="path3429"
       sodipodi:nodetypes="cssc" />
    <path
       style="fill:#ffffff;stroke:#ffffff;stroke-width:1px;stroke-linecap:butt;stroke-linejoin:miter;stroke-opacity:1"
       d="m 247.31844,301.10174 194.38214,1.27047"
       id="path3890" />
  </g>
</svg>
